# xmcd
#
# Track frame offsets: 
#        150
#        19026
#        35243
#        50908
#        70286
#        84453
#        99913
#        118984
#        132993
#        147599
#
# Disc length: 2209 seconds
#
# Revision: 2
# Processed by: cddbd v1.5.2PL0 Copyright (c) Steve Scherf et al.
# Submitted via: ExactAudioCopy v1.0b1
#
DISCID=97089f0a
DTITLE=Chuck Jones - Blind Hogs and Acorns
DYEAR=2003
DGENRE=Country
TTITLE0=Your Love Amazes Me
TTITLE1=Inexpressible
TTITLE2=Absence Of The Heart
TTITLE3=Love A Little Stronger
TTITLE4=Bury The Shovel
TTITLE5=Count Me In
TTITLE6=You And Only You
TTITLE7=Faithfully
TTITLE8=It's What I Do
TTITLE9=Only The Wind
EXTD=
EXTT0=
EXTT1=
EXTT2=
EXTT3=
EXTT4=
EXTT5=
EXTT6=
EXTT7=
EXTT8=
EXTT9=
PLAYORDER=
